<?xml version="1.0" standalone="no"?><!DOCTYPE svg PUBLIC "-//W3C//DTD SVG 1.1//EN" "http://www.w3.org/Graphics/SVG/1.1/DTD/svg11.dtd"><svg class="icon" width="200px" height="200.00px" viewBox="0 0 1024 1024" version="1.1" xmlns="http://www.w3.org/2000/svg"><path fill="#000000" d="M511.957333 85.973333c-235.648 0-426.666667 191.018667-426.666666 426.666667s191.018667 426.666667 426.666666 426.666667 426.666667-191.018667 426.666667-426.666667-191.018667-426.666667-426.666667-426.666667z m0 85.333334c56.32 0 118.186667 129.365333 127.616 298.538666l-254.72 0.512c9.386667-169.173333 70.784-299.093333 127.104-299.093333z m-150.656 34.261333c-36.693333 71.381333-56.32 165.973333-61.056 264.490667l-127.146666-0.426667c12.714667-116.224 91.008-213.76 188.202666-264.106667z m301.525334 0.213333c97.194667 50.304 173.482667 145.066667 188.202666 264.533334l-127.104-0.341334c-4.010667-102.4-26.666667-192.426667-61.098666-264.192zM173.354667 555.477333l127.104-1.066666c4.736 98.474667 24.490667 194.730667 61.013333 265.344a347.733333 347.733333 0 0 1-188.117333-264.277334z m210.816 0.341334l254.72-0.554667c-9.386667 169.130667-70.613333 298.666667-126.933334 298.666667s-118.4-128.938667-127.786666-298.112z m339.968-0.426667l126.549333-0.426667c-14.677333 113.066667-86.016 214.016-188.032 264.32 37.888-78.336 56.746667-165.418667 61.482667-263.893333z"  /></svg>