<?xml version="1.0" standalone="no"?><!DOCTYPE svg PUBLIC "-//W3C//DTD SVG 1.1//EN" "http://www.w3.org/Graphics/SVG/1.1/DTD/svg11.dtd"><svg class="icon" width="200px" height="200.00px" viewBox="0 0 1024 1024" version="1.1" xmlns="http://www.w3.org/2000/svg"><path fill="#000000" d="M527.521 48.559c-246.731 0-446.746 200.006-446.746 446.727 0 246.722 200.015 446.728 446.746 446.728s446.746-200.006 446.746-446.728C974.267 248.565 774.252 48.559 527.521 48.559zM691.075 737.075c-48.537 35.246-105.146 53.574-163.068 53.574-9.483 0-18.967-0.604-28.499-1.561-1.897-0.202-3.793-0.555-5.739-0.906-5.252-0.655-10.554-1.159-15.903-2.166-1.556-0.15-3.015-0.654-4.571-1.057-3.842-0.705-7.441-1.712-11.186-2.619-5.641-1.309-11.185-2.769-16.632-4.38-3.016-1.007-5.885-2.014-8.851-3.072-6.225-2.215-12.401-4.431-18.48-7.099-1.703-0.756-3.405-1.561-5.204-2.366-7.003-3.173-13.958-6.646-20.718-10.423-0.729-0.403-1.264-0.706-1.896-1.058-23.49-13.394-45.035-30.01-64.148-49.849-0.486-0.554-0.972-1.057-1.556-1.661-5.642-6.043-11.234-12.185-16.39-18.63-1.411-1.863-2.577-3.576-3.939-5.237-3.502-4.532-7.198-9.013-10.457-13.947-0.438-0.604-0.681-1.359-1.07-2.063-31.758-47.684-50.53-105.286-50.53-167.37L185.24 495.185l91.285-141.739 91.284 141.739-57.095 0c0 52.819 17.848 101.409 47.466 139.776 0.875 1.259 1.702 2.316 2.529 3.374 4.085 5.236 8.414 10.07 12.937 14.753 0.292 0.252 0.486 0.554 0.729 0.806 14.59 15.206 31.174 27.945 49.363 38.317 0.194 0.15 0.486 0.252 0.681 0.402 5.398 2.921 10.942 5.64 16.535 8.309 1.07 0.453 2.14 0.856 3.21 1.359 4.766 2.064 9.727 3.878 14.736 5.488 2.042 0.856 3.987 1.511 6.03 2.316 4.329 1.309 8.706 2.316 13.131 3.323 2.675 0.654 5.447 1.46 8.219 1.964 4.523 0.956 9.046 1.561 13.715 2.165 2.383 0.352 4.766 0.756 7.149 1.007 5.885 0.453 11.769 0.906 17.751 1.008 45.083 0.553 89.29-13.092 126.981-40.483 15.465-11.329 36.768-7.452 47.66 8.711C710.334 703.692 706.54 725.847 691.075 737.075zM778.615 636.977l-91.431-141.791 57.145 0c-0.048-53.926-18.53-103.422-49.266-142.193-0.195-0.151-0.292-0.352-0.34-0.453-21.887-27.391-49.851-49.244-81.802-63.443-0.535-0.202-1.07-0.655-1.654-0.806-5.252-2.316-10.699-4.28-16.292-6.143-1.459-0.604-2.917-1.158-4.522-1.611-4.815-1.511-9.679-2.719-14.688-3.877-2.092-0.503-4.328-1.107-6.517-1.511-5.059-1.107-10.164-1.812-15.318-2.467-1.947-0.302-3.794-0.604-5.739-0.755-6.226-0.654-12.645-0.957-19.065-1.006-44.791-0.454-88.464 13.343-125.862 40.432-15.514 11.279-36.961 7.352-47.709-8.61-10.894-16.112-7.101-38.217 8.365-49.395 48.438-35.196 104.95-53.272 162.825-53.322 0.241-0.05 0.485-0.101 0.729-0.101 1.362 0 2.724 0.201 4.085 0.201 7.538 0.151 15.077 0.453 22.663 1.208 3.162 0.353 6.177 0.856 9.338 1.208 4.523 0.554 8.949 1.007 13.473 1.762 1.749 0.353 3.257 0.856 4.911 1.159 3.355 0.705 6.759 1.611 10.116 2.366 6.03 1.46 11.963 2.971 17.896 4.834 2.432 0.755 4.912 1.661 7.246 2.467 6.857 2.417 13.568 4.834 20.183 7.654 1.216 0.503 2.237 1.057 3.453 1.561 41.095 18.378 77.425 46.525 106.508 82.778 0.437 0.705 0.923 1.411 1.41 2.015 4.328 5.488 8.511 10.926 12.596 16.767 0.39 0.705 0.681 1.561 1.167 2.366 31.611 47.432 50.142 104.983 50.142 166.916l57.144 0L778.615 636.977z"  /></svg>