<svg width="11" height="19" viewBox="0 0 11 19" fill="none" xmlns="http://www.w3.org/2000/svg">
<path d="M1.79227 18.6216C1.38222 19.0316 0.717393 19.0316 0.307343 18.6216C-0.102708 18.2115 -0.102708 17.5467 0.307342 17.1366L8.72191 8.72206C9.13196 8.31201 9.79679 8.31201 10.2068 8.72206C10.6169 9.13211 10.6169 9.79693 10.2068 10.207L1.79227 18.6216Z" fill="#949494"/>
<path d="M0.307341 1.79241C-0.102709 1.38236 -0.10271 0.717537 0.307341 0.307486C0.717391 -0.102564 1.38221 -0.102564 1.79227 0.307486L10.2068 8.72206C10.6169 9.13211 10.6169 9.79693 10.2068 10.207C9.79679 10.617 9.13196 10.617 8.72191 10.207L0.307341 1.79241Z" fill="#949494"/>
</svg>
