<svg width="23" height="23" viewBox="0 0 23 23" fill="none" xmlns="http://www.w3.org/2000/svg">
<path d="M0.488126 0.487948C1.139 -0.162926 2.19427 -0.162926 2.84515 0.487948L21.7013 19.3441C22.3522 19.995 22.3522 21.0503 21.7013 21.7011C21.0505 22.352 19.9952 22.352 19.3443 21.7011L0.488127 2.84497C-0.162746 2.1941 -0.162748 1.13882 0.488126 0.487948Z" fill="#6B6D72"/>
<path d="M21.7013 0.487948C22.3522 1.13882 22.3522 2.1941 21.7013 2.84497L2.84515 21.7011C2.19427 22.352 1.139 22.352 0.488126 21.7011C-0.162748 21.0503 -0.162749 19.995 0.488125 19.3441L19.3443 0.487949C19.9952 -0.162925 21.0505 -0.162926 21.7013 0.487948Z" fill="#6B6D72"/>
</svg>
